<svg width="49" height="49" viewBox="0 0 49 49" fill="none" xmlns="http://www.w3.org/2000/svg">
<path id="Vector" d="M24.1777 0C10.8247 0 0 10.8247 0 24.1777C0 37.5308 10.8247 48.3555 24.1777 48.3555C37.5308 48.3555 48.3555 37.5308 48.3555 24.1777C48.3555 10.8247 37.5308 0 24.1777 0ZM24.1777 4.67956C34.9536 4.67956 43.6759 13.4002 43.6759 24.1777C43.6759 34.9536 34.9553 43.6759 24.1777 43.6759C13.4019 43.6759 4.67956 34.9553 4.67956 24.1777C4.67956 13.4019 13.4002 4.67956 24.1777 4.67956ZM37.8463 17.3794L35.6493 15.1646C35.1943 14.7059 34.4536 14.7029 33.9949 15.158L20.2143 28.8278L14.3852 22.9513C13.9302 22.4926 13.1894 22.4896 12.7307 22.9446L10.5159 25.1416C10.0572 25.5966 10.0541 26.3374 10.5092 26.7961L19.3595 35.7181C19.8145 36.1768 20.5553 36.1798 21.014 35.7247L37.8398 19.0339C38.2984 18.5788 38.3013 17.8381 37.8463 17.3794Z" fill="#3D65F3"/>
</svg>
