<svg width="79" height="48" viewBox="0 0 79 48" fill="none" xmlns="http://www.w3.org/2000/svg">
<path id="Vector" d="M53.446 0H42.8847C41.9011 0 40.9544 0.368848 40.229 1.03277L28.1431 12.0982C28.1308 12.1105 28.1185 12.1351 28.1062 12.1474C26.0652 14.0654 26.1021 17.1268 27.848 19.0325C29.4095 20.7415 32.6922 21.1964 34.7454 19.3645C34.7577 19.3522 34.7823 19.3522 34.7946 19.3399L44.6183 10.34C45.4174 9.61463 46.6715 9.66381 47.3969 10.463C48.1346 11.2621 48.0731 12.5039 47.274 13.2416L44.065 16.1801L61.9664 30.7127C62.323 31.0078 62.6426 31.3275 62.9377 31.6594V7.86875L56.2247 1.15572C55.4993 0.418028 54.4911 0 53.446 0ZM66.8844 7.89334V35.4217C66.8844 37.5979 68.6425 39.356 70.8187 39.356H78.6875V7.89334H66.8844ZM72.7859 35.4217C71.704 35.4217 70.8187 34.5364 70.8187 33.4545C70.8187 32.3725 71.704 31.4873 72.7859 31.4873C73.8679 31.4873 74.7531 32.3725 74.7531 33.4545C74.7531 34.5364 73.8679 35.4217 72.7859 35.4217ZM0 39.3438H7.86875C10.045 39.3438 11.8031 37.5856 11.8031 35.4094V7.89334H0V39.3438ZM5.90156 31.4873C6.98352 31.4873 7.86875 32.3725 7.86875 33.4545C7.86875 34.5364 6.98352 35.4217 5.90156 35.4217C4.81961 35.4217 3.93438 34.5364 3.93438 33.4545C3.93438 32.3602 4.81961 31.4873 5.90156 31.4873ZM59.4951 33.7742L41.1388 18.8727L37.4503 22.2538C33.7987 25.5857 28.2045 25.2661 24.9464 21.7128C21.6391 18.0981 21.8973 12.5039 25.4874 9.2089L35.5446 0H25.2415C24.1964 0 23.2005 0.418028 22.4628 1.15572L15.7375 7.86875V35.3971H17.9875L29.1144 45.4666C32.4832 48.2084 37.438 47.692 40.1798 44.3232L40.2044 44.2986L42.4052 46.2043C44.3601 47.8027 47.2494 47.4953 48.8354 45.5404L52.696 40.7945L53.36 41.3355C55.0444 42.7003 57.5279 42.4544 58.8927 40.7577L60.0607 39.3192C61.4377 37.6225 61.1795 35.1512 59.4951 33.7742Z" fill="#3D65F3"/>
</svg>
