<svg width="64" height="48" viewBox="0 0 64 48" fill="none" xmlns="http://www.w3.org/2000/svg">
<path id="Vector" d="M62 40H8V2C8 0.895 7.105 0 6 0H2C0.895 0 0 0.895 0 2V44C0 46.2088 1.79125 48 4 48H62C63.105 48 64 47.105 64 46V42C64 40.895 63.105 40 62 40ZM58 4H43.2425C40.57 4 39.2312 7.23125 41.1212 9.12125L45.1712 13.1712L36 22.3438L26.8287 13.1725C25.2662 11.61 22.7337 11.61 21.1725 13.1725L12.5862 21.7588C11.805 22.54 11.805 23.8063 12.5862 24.5875L15.4137 27.415C16.195 28.1963 17.4612 28.1963 18.2425 27.415L24 21.6562L33.1712 30.8275C34.7337 32.39 37.2662 32.39 38.8275 30.8275L50.8275 18.8275L54.8775 22.8775C56.7675 24.7675 59.9987 23.4288 59.9987 20.7563V6C60 4.895 59.105 4 58 4Z" fill="#3D65F3"/>
</svg>
