<svg width="35" height="28" viewBox="0 0 35 28" fill="none" xmlns="http://www.w3.org/2000/svg">
<g id="&#240;&#159;&#166;&#134; icon &#34;Box Open&#34;">
<path id="Vector" d="M32.0802 0H2.96916C1.35526 0 0.0507812 1.30447 0.0507812 2.91232V24.2693C0.0507812 25.8771 1.35526 27.1816 2.96916 27.1816H32.0802C33.6941 27.1816 34.9986 25.8771 34.9986 24.2693V2.91232C34.9986 1.30447 33.6941 0 32.0802 0ZM3.3332 2.91232H31.7161C31.9164 2.91232 32.0802 3.07613 32.0802 3.27635V5.82463H2.96916V3.27635C2.96916 3.07613 3.13298 2.91232 3.3332 2.91232ZM31.7161 24.2693H3.3332C3.13298 24.2693 2.96916 24.1055 2.96916 23.9053V13.5908H32.0802V23.9053C32.0802 24.1055 31.9164 24.2693 31.7161 24.2693ZM11.7 18.202V20.6289C11.7 21.0293 11.3724 21.357 10.972 21.357H6.60349C6.20305 21.357 5.87541 21.0293 5.87541 20.6289V18.202C5.87541 17.8015 6.20305 17.4739 6.60349 17.4739H10.972C11.3724 17.4739 11.7 17.8015 11.7 18.202ZM23.3493 18.202V20.6289C23.3493 21.0293 23.0217 21.357 22.6212 21.357H14.3697C13.9692 21.357 13.6416 21.0293 13.6416 20.6289V18.202C13.6416 17.8015 13.9692 17.4739 14.3697 17.4739H22.6212C23.0217 17.4739 23.3493 17.8015 23.3493 18.202Z" fill="#3D65F3"/>
</g>
</svg>
