<svg width="26" height="41" viewBox="0 0 26 41" fill="none" xmlns="http://www.w3.org/2000/svg">
<g id="&#240;&#159;&#166;&#134; icon &#34;Box Open&#34;">
<path id="Vector" d="M21.7421 0.0742188H3.83684C1.71858 0.0742188 0 1.7928 0 3.91106V37.1637C0 39.2819 1.71858 41.0005 3.83684 41.0005H21.7421C23.8603 41.0005 25.5789 39.2819 25.5789 37.1637V3.91106C25.5789 1.7928 23.8603 0.0742188 21.7421 0.0742188ZM12.7895 38.4426C11.3746 38.4426 10.2316 37.2995 10.2316 35.8847C10.2316 34.4699 11.3746 33.3268 12.7895 33.3268C14.2043 33.3268 15.3474 34.4699 15.3474 35.8847C15.3474 37.2995 14.2043 38.4426 12.7895 38.4426ZM21.7421 29.8097C21.7421 30.3373 21.3104 30.7689 20.7829 30.7689H4.79605C4.26848 30.7689 3.83684 30.3373 3.83684 29.8097V4.87027C3.83684 4.3427 4.26848 3.91106 4.79605 3.91106H20.7829C21.3104 3.91106 21.7421 4.3427 21.7421 4.87027V29.8097Z" fill="#3D65F3"/>
</g>
</svg>
