<svg width="39" height="28" viewBox="0 0 39 28" fill="none" xmlns="http://www.w3.org/2000/svg">
<g id="&#240;&#159;&#166;&#134; icon &#34;Box Open&#34;">
<path id="Vector" d="M25.942 13.917C24.9123 13.917 23.9434 13.3686 23.4194 12.4912L19.5014 5.99564L15.5894 12.4912C15.0593 13.3747 14.0904 13.9231 13.0607 13.9231C12.7865 13.9231 12.5123 13.8865 12.2502 13.8073L3.90233 11.4187V22.2649C3.90233 23.1607 4.51167 23.9406 5.37693 24.1539L18.5508 27.4504C19.1723 27.6027 19.8243 27.6027 20.4397 27.4504L33.6258 24.1539C34.491 23.9345 35.1004 23.1546 35.1004 22.2649V11.4187L26.7525 13.8012C26.4904 13.8805 26.2162 13.917 25.942 13.917ZM38.8965 7.08026L35.7584 0.81628C35.5696 0.438492 35.1613 0.21913 34.7409 0.273971L19.5014 2.21775L25.089 11.4858C25.3205 11.8696 25.7836 12.0524 26.2162 11.9306L38.275 8.48783C38.8783 8.31112 39.1707 7.64085 38.8965 7.08026ZM3.24425 0.81628L0.106166 7.08026C-0.174129 7.64085 0.124446 8.31112 0.721596 8.48173L12.7804 11.9245C13.213 12.0464 13.6761 11.8636 13.9076 11.4797L19.5014 2.21775L4.25575 0.273971C3.83531 0.225224 3.43314 0.438492 3.24425 0.81628Z" fill="#3D65F3"/>
</g>
</svg>
